<mxfile host="app.diagrams.net" agent="Mozilla/5.0 (Windows NT 10.0; Win64; x64) AppleWebKit/537.36 (KHTML, like Gecko) Chrome/131.0.0.0 Safari/537.36" version="24.8.3">
  <diagram name="Page-1" id="Pu2fUve4udO9rDg3UtVr">
    <mxGraphModel dx="1050" dy="563" grid="0" gridSize="10" guides="1" tooltips="1" connect="1" arrows="1" fold="1" page="1" pageScale="1" pageWidth="850" pageHeight="1100" math="0" shadow="0">
      <root>
        <mxCell id="0" />
        <mxCell id="1" parent="0" />
        <mxCell id="M85PwwLcGRauj_bEGqxR-8" style="edgeStyle=orthogonalEdgeStyle;rounded=0;orthogonalLoop=1;jettySize=auto;html=1;exitX=0.5;exitY=1;exitDx=0;exitDy=0;entryX=0.5;entryY=0;entryDx=0;entryDy=0;" edge="1" parent="1" source="M85PwwLcGRauj_bEGqxR-1" target="M85PwwLcGRauj_bEGqxR-2">
          <mxGeometry relative="1" as="geometry" />
        </mxCell>
        <mxCell id="M85PwwLcGRauj_bEGqxR-1" value="&lt;font style=&quot;font-size: 13px;&quot;&gt;&lt;b&gt;Put Image&lt;/b&gt;&lt;/font&gt;" style="rounded=1;whiteSpace=wrap;html=1;" vertex="1" parent="1">
          <mxGeometry x="320" y="80" width="120" height="40" as="geometry" />
        </mxCell>
        <mxCell id="M85PwwLcGRauj_bEGqxR-6" style="edgeStyle=orthogonalEdgeStyle;rounded=0;orthogonalLoop=1;jettySize=auto;html=1;exitX=0;exitY=0.5;exitDx=0;exitDy=0;entryX=0;entryY=0.5;entryDx=0;entryDy=0;" edge="1" parent="1" source="M85PwwLcGRauj_bEGqxR-2" target="M85PwwLcGRauj_bEGqxR-1">
          <mxGeometry relative="1" as="geometry" />
        </mxCell>
        <mxCell id="M85PwwLcGRauj_bEGqxR-7" value="&lt;font style=&quot;font-size: 13px;&quot;&gt;Detect Failed&lt;/font&gt;" style="edgeLabel;html=1;align=center;verticalAlign=middle;resizable=0;points=[];" vertex="1" connectable="0" parent="M85PwwLcGRauj_bEGqxR-6">
          <mxGeometry x="-0.098" y="3" relative="1" as="geometry">
            <mxPoint as="offset" />
          </mxGeometry>
        </mxCell>
        <mxCell id="M85PwwLcGRauj_bEGqxR-9" style="edgeStyle=orthogonalEdgeStyle;rounded=0;orthogonalLoop=1;jettySize=auto;html=1;exitX=0.5;exitY=1;exitDx=0;exitDy=0;entryX=0.5;entryY=0;entryDx=0;entryDy=0;" edge="1" parent="1" source="M85PwwLcGRauj_bEGqxR-2" target="M85PwwLcGRauj_bEGqxR-3">
          <mxGeometry relative="1" as="geometry" />
        </mxCell>
        <mxCell id="M85PwwLcGRauj_bEGqxR-10" value="&lt;font style=&quot;font-size: 13px;&quot;&gt;Detect Successful&lt;/font&gt;" style="edgeLabel;html=1;align=center;verticalAlign=middle;resizable=0;points=[];" vertex="1" connectable="0" parent="M85PwwLcGRauj_bEGqxR-9">
          <mxGeometry x="-0.1067" relative="1" as="geometry">
            <mxPoint as="offset" />
          </mxGeometry>
        </mxCell>
        <mxCell id="M85PwwLcGRauj_bEGqxR-2" value="&lt;font style=&quot;font-size: 13px;&quot;&gt;&lt;b&gt;License Plate Detection&lt;/b&gt;&lt;/font&gt;&lt;div style=&quot;font-size: 13px;&quot;&gt;&lt;font style=&quot;font-size: 13px;&quot;&gt;&lt;b&gt;(YOLOv8)&lt;/b&gt;&lt;/font&gt;&lt;/div&gt;" style="rhombus;whiteSpace=wrap;html=1;" vertex="1" parent="1">
          <mxGeometry x="240" y="160" width="280" height="80" as="geometry" />
        </mxCell>
        <mxCell id="M85PwwLcGRauj_bEGqxR-11" style="edgeStyle=orthogonalEdgeStyle;rounded=0;orthogonalLoop=1;jettySize=auto;html=1;exitX=0.5;exitY=1;exitDx=0;exitDy=0;entryX=0.5;entryY=0;entryDx=0;entryDy=0;" edge="1" parent="1" source="M85PwwLcGRauj_bEGqxR-3" target="M85PwwLcGRauj_bEGqxR-4">
          <mxGeometry relative="1" as="geometry" />
        </mxCell>
        <mxCell id="M85PwwLcGRauj_bEGqxR-3" value="&lt;font style=&quot;font-size: 13px;&quot;&gt;&lt;b&gt;Image Processing&lt;/b&gt;&lt;/font&gt;" style="rounded=1;whiteSpace=wrap;html=1;" vertex="1" parent="1">
          <mxGeometry x="320" y="280" width="120" height="40" as="geometry" />
        </mxCell>
        <mxCell id="M85PwwLcGRauj_bEGqxR-12" style="edgeStyle=orthogonalEdgeStyle;rounded=0;orthogonalLoop=1;jettySize=auto;html=1;exitX=0.5;exitY=1;exitDx=0;exitDy=0;entryX=0.5;entryY=0;entryDx=0;entryDy=0;" edge="1" parent="1" source="M85PwwLcGRauj_bEGqxR-4" target="M85PwwLcGRauj_bEGqxR-5">
          <mxGeometry relative="1" as="geometry" />
        </mxCell>
        <mxCell id="M85PwwLcGRauj_bEGqxR-4" value="&lt;b style=&quot;font-size: 13px;&quot;&gt;&lt;font style=&quot;font-size: 13px;&quot;&gt;Identify Digits and Letters&lt;/font&gt;&lt;/b&gt;&lt;div style=&quot;font-size: 13px;&quot;&gt;&lt;b&gt;&lt;font style=&quot;font-size: 13px;&quot;&gt;(Padle-OCR)&lt;/font&gt;&lt;/b&gt;&lt;/div&gt;" style="rhombus;whiteSpace=wrap;html=1;" vertex="1" parent="1">
          <mxGeometry x="240" y="360" width="280" height="80" as="geometry" />
        </mxCell>
        <mxCell id="M85PwwLcGRauj_bEGqxR-5" value="&lt;font style=&quot;font-size: 13px;&quot;&gt;&lt;b&gt;Output Result&lt;/b&gt;&lt;/font&gt;" style="rounded=1;whiteSpace=wrap;html=1;" vertex="1" parent="1">
          <mxGeometry x="320" y="480" width="120" height="40" as="geometry" />
        </mxCell>
      </root>
    </mxGraphModel>
  </diagram>
</mxfile>
